<svg xmlns="http://www.w3.org/2000/svg" width="900" height="544" viewBox="0 0 900 544" font-family="ui-monospace, SFMono-Regular, 'JetBrains Mono', Menlo, Consolas, monospace" font-size="14">
  <style>
    .ln { opacity: 0; animation: rise .45s ease forwards; }
    @keyframes rise { from { opacity: 0; transform: translateX(-6px); } to { opacity: 1; transform: translateX(0); } }
    .cur { animation: blink 1s steps(1) infinite; }
    @keyframes blink { 50% { opacity: 0; } }
    .sum { opacity: 0; animation: rise .5s ease forwards; animation-delay: 3.46s; }
  </style>
  <rect width="900" height="544" rx="12" fill="#161a21"/>
  <rect width="900" height="40" rx="12" fill="#2a303a"/>
  <rect y="28" width="900" height="12" fill="#2a303a"/>
  <circle cx="24" cy="20" r="6" fill="#ff5f56"/><circle cx="44" cy="20" r="6" fill="#ffbd2e"/><circle cx="64" cy="20" r="6" fill="#27c93f"/>
  <text x="450" y="25" fill="#8b93a0" text-anchor="middle" font-size="12">tokensmith · audit_css</text>
  <text x="28" y="80" fill="#eceef1"><tspan fill="#1e8a4c">$</tspan> audit_css <tspan fill="#8b93a0">SettingsCard.tsx</tspan> <tspan class="cur" fill="#eceef1">▊</tspan></text>
  <g class="ln" style="animation-delay:0.70s"><text x="28" y="114" fill="#8b93a0">L19  </text><text x="72" y="114" fill="#eceef1">12px</text><text x="168" y="114" fill="#5b6472">→</text><text x="208" y="114" fill="#eceef1">space.3</text><rect x="782" y="101" width="90" height="18" rx="9" fill="#e8a22122" stroke="#e8a22155"/><text x="827" y="114" fill="#e8a221" text-anchor="middle" font-size="11">exact-miss</text></g>
<g class="ln" style="animation-delay:0.86s"><text x="28" y="138" fill="#8b93a0">L20  </text><rect x="72" y="127" width="13" height="13" rx="2" fill="#ffffff" stroke="#ffffff22"/><text x="92" y="138" fill="#eceef1">#ffffff</text><text x="168" y="138" fill="#5b6472">→</text><rect x="188" y="127" width="13" height="13" rx="2" fill="#ffffff" stroke="#ffffff22"/><text x="208" y="138" fill="#eceef1">color.surface.default</text><rect x="782" y="125" width="90" height="18" rx="9" fill="#e8a22122" stroke="#e8a22155"/><text x="827" y="138" fill="#e8a221" text-anchor="middle" font-size="11">exact-miss</text></g>
<g class="ln" style="animation-delay:1.02s"><text x="28" y="162" fill="#8b93a0">L21  </text><rect x="72" y="151" width="13" height="13" rx="2" fill="#e5e7eb" stroke="#ffffff22"/><text x="92" y="162" fill="#eceef1">#e5e7eb</text><text x="168" y="162" fill="#5b6472">→</text><rect x="188" y="151" width="13" height="13" rx="2" fill="#eceef1" stroke="#ffffff22"/><text x="208" y="162" fill="#eceef1">color.surface.sunken</text><rect x="789.4" y="149" width="82.60000000000001" height="18" rx="9" fill="#3573e822" stroke="#3573e855"/><text x="830.6999999999999" y="162" fill="#3573e8" text-anchor="middle" font-size="11">near-miss</text></g>
<g class="ln" style="animation-delay:1.18s"><text x="28" y="186" fill="#8b93a0">L23  </text><text x="72" y="186" fill="#eceef1">24px</text><text x="168" y="186" fill="#5b6472">→</text><text x="208" y="186" fill="#eceef1">space.6</text><rect x="782" y="173" width="90" height="18" rx="9" fill="#e8a22122" stroke="#e8a22155"/><text x="827" y="186" fill="#e8a221" text-anchor="middle" font-size="11">exact-miss</text></g>
<g class="ln" style="animation-delay:1.34s"><text x="28" y="210" fill="#8b93a0">L34  </text><rect x="72" y="199" width="13" height="13" rx="2" fill="#111827" stroke="#ffffff22"/><text x="92" y="210" fill="#eceef1">#111827</text><text x="168" y="210" fill="#5b6472">→</text><rect x="188" y="199" width="13" height="13" rx="2" fill="#161a21" stroke="#ffffff22"/><text x="208" y="210" fill="#eceef1">color.surface.inverse</text><rect x="789.4" y="197" width="82.60000000000001" height="18" rx="9" fill="#3573e822" stroke="#3573e855"/><text x="830.6999999999999" y="210" fill="#3573e8" text-anchor="middle" font-size="11">near-miss</text></g>
<g class="ln" style="animation-delay:1.50s"><text x="28" y="234" fill="#8b93a0">L43  </text><rect x="72" y="223" width="13" height="13" rx="2" fill="#6b7280" stroke="#ffffff22"/><text x="92" y="234" fill="#eceef1">#6b7280</text><text x="168" y="234" fill="#5b6472">→</text><rect x="188" y="223" width="13" height="13" rx="2" fill="#5b6472" stroke="#ffffff22"/><text x="208" y="234" fill="#eceef1">color.text.muted</text><rect x="789.4" y="221" width="82.60000000000001" height="18" rx="9" fill="#3573e822" stroke="#3573e855"/><text x="830.6999999999999" y="234" fill="#3573e8" text-anchor="middle" font-size="11">near-miss</text></g>
<g class="ln" style="animation-delay:1.66s"><text x="28" y="258" fill="#8b93a0">L52  </text><rect x="72" y="247" width="13" height="13" rx="2" fill="#e5e7eb" stroke="#ffffff22"/><text x="92" y="258" fill="#eceef1">#e5e7eb</text><text x="168" y="258" fill="#5b6472">→</text><rect x="188" y="247" width="13" height="13" rx="2" fill="#eceef1" stroke="#ffffff22"/><text x="208" y="258" fill="#eceef1">color.surface.sunken</text><rect x="789.4" y="245" width="82.60000000000001" height="18" rx="9" fill="#3573e822" stroke="#3573e855"/><text x="830.6999999999999" y="258" fill="#3573e8" text-anchor="middle" font-size="11">near-miss</text></g>
<g class="ln" style="animation-delay:1.82s"><text x="28" y="282" fill="#8b93a0">L53  </text><text x="72" y="282" fill="#eceef1">20px</text><text x="168" y="282" fill="#5b6472">→</text><text x="208" y="282" fill="#eceef1">type.size.lg</text><rect x="782" y="269" width="90" height="18" rx="9" fill="#e8a22122" stroke="#e8a22155"/><text x="827" y="282" fill="#e8a221" text-anchor="middle" font-size="11">exact-miss</text></g>
<g class="ln" style="animation-delay:1.98s"><text x="28" y="306" fill="#8b93a0">L62  </text><rect x="72" y="295" width="13" height="13" rx="2" fill="#374151" stroke="#ffffff22"/><text x="92" y="306" fill="#eceef1">#374151</text><text x="168" y="306" fill="#5b6472">→</text><rect x="188" y="295" width="13" height="13" rx="2" fill="#2a303a" stroke="#ffffff22"/><text x="208" y="306" fill="#eceef1">color.base.gray-800</text><rect x="789.4" y="293" width="82.60000000000001" height="18" rx="9" fill="#3573e822" stroke="#3573e855"/><text x="830.6999999999999" y="306" fill="#3573e8" text-anchor="middle" font-size="11">near-miss</text></g>
<g class="ln" style="animation-delay:2.14s"><text x="28" y="330" fill="#8b93a0">L73  </text><text x="72" y="330" fill="#eceef1">12px</text><text x="168" y="330" fill="#5b6472">→</text><text x="208" y="330" fill="#eceef1">space.3</text><rect x="782" y="317" width="90" height="18" rx="9" fill="#e8a22122" stroke="#e8a22155"/><text x="827" y="330" fill="#e8a221" text-anchor="middle" font-size="11">exact-miss</text></g>
<g class="ln" style="animation-delay:2.30s"><text x="28" y="354" fill="#8b93a0">L75  </text><rect x="72" y="343" width="13" height="13" rx="2" fill="#d1d5db" stroke="#ffffff22"/><text x="92" y="354" fill="#eceef1">#d1d5db</text><text x="168" y="354" fill="#5b6472">→</text><rect x="188" y="343" width="13" height="13" rx="2" fill="#c6ccd4" stroke="#ffffff22"/><text x="208" y="354" fill="#eceef1">color.border.default</text><rect x="789.4" y="341" width="82.60000000000001" height="18" rx="9" fill="#3573e822" stroke="#3573e855"/><text x="830.6999999999999" y="354" fill="#3573e8" text-anchor="middle" font-size="11">near-miss</text></g>
<g class="ln" style="animation-delay:2.46s"><text x="28" y="378" fill="#8b93a0">L77  </text><rect x="72" y="367" width="13" height="13" rx="2" fill="#111827" stroke="#ffffff22"/><text x="92" y="378" fill="#eceef1">#111827</text><text x="168" y="378" fill="#5b6472">→</text><rect x="188" y="367" width="13" height="13" rx="2" fill="#161a21" stroke="#ffffff22"/><text x="208" y="378" fill="#eceef1">color.surface.inverse</text><rect x="789.4" y="365" width="82.60000000000001" height="18" rx="9" fill="#3573e822" stroke="#3573e855"/><text x="830.6999999999999" y="378" fill="#3573e8" text-anchor="middle" font-size="11">near-miss</text></g>
<g class="ln" style="animation-delay:2.62s"><text x="28" y="402" fill="#8b93a0">L85  </text><rect x="72" y="391" width="13" height="13" rx="2" fill="#2563eb" stroke="#ffffff22"/><text x="92" y="402" fill="#eceef1">#2563eb</text><text x="168" y="402" fill="#5b6472">→</text><rect x="188" y="391" width="13" height="13" rx="2" fill="#2557c7" stroke="#ffffff22"/><text x="208" y="402" fill="#eceef1">color.brand.primary</text><rect x="789.4" y="389" width="82.60000000000001" height="18" rx="9" fill="#3573e822" stroke="#3573e855"/><text x="830.6999999999999" y="402" fill="#3573e8" text-anchor="middle" font-size="11">near-miss</text></g>
<g class="ln" style="animation-delay:2.78s"><text x="28" y="426" fill="#8b93a0">L86  </text><rect x="72" y="415" width="13" height="13" rx="2" fill="#ffffff" stroke="#ffffff22"/><text x="92" y="426" fill="#eceef1">#ffffff</text><text x="168" y="426" fill="#5b6472">→</text><rect x="188" y="415" width="13" height="13" rx="2" fill="#ffffff" stroke="#ffffff22"/><text x="208" y="426" fill="#eceef1">color.surface.default</text><rect x="782" y="413" width="90" height="18" rx="9" fill="#e8a22122" stroke="#e8a22155"/><text x="827" y="426" fill="#e8a221" text-anchor="middle" font-size="11">exact-miss</text></g>
<g class="ln" style="animation-delay:2.94s"><text x="28" y="450" fill="#8b93a0">L89  </text><text x="72" y="450" fill="#eceef1">16px</text><text x="168" y="450" fill="#5b6472">→</text><text x="208" y="450" fill="#eceef1">space.4</text><rect x="782" y="437" width="90" height="18" rx="9" fill="#e8a22122" stroke="#e8a22155"/><text x="827" y="450" fill="#e8a221" text-anchor="middle" font-size="11">exact-miss</text></g>
<g class="ln" style="animation-delay:3.10s"><text x="28" y="474" fill="#8b93a0">L101 </text><rect x="72" y="463" width="13" height="13" rx="2" fill="#ef4444" stroke="#ffffff22"/><text x="92" y="474" fill="#eceef1">#ef4444</text><text x="168" y="474" fill="#5b6472">→</text><rect x="188" y="463" width="13" height="13" rx="2" fill="#c92c3d" stroke="#ffffff22"/><text x="208" y="474" fill="#eceef1">color.action.destructive</text><rect x="789.4" y="461" width="82.60000000000001" height="18" rx="9" fill="#3573e822" stroke="#3573e855"/><text x="830.6999999999999" y="474" fill="#3573e8" text-anchor="middle" font-size="11">near-miss</text></g>
  <text class="sum" x="28" y="524" fill="#eceef1">16 off-system values — <tspan fill="#e8a221">7 exact</tspan>, <tspan fill="#3573e8">9 near</tspan>. <tspan fill="#8b93a0">Every guess had a token.</tspan></text>
</svg>
